<?xml version="1.0" encoding="UTF-8" standalone="no"?>
<!DOCTYPE svg PUBLIC "-//W3C//DTD SVG 1.0//EN" "http://www.w3.org/TR/2001/PR-SVG-20010719/DTD/svg10.dtd">
<svg width="16cm" height="11cm" viewBox="119 51 318 205" xmlns="http://www.w3.org/2000/svg" xmlns:xlink="http://www.w3.org/1999/xlink">
  <g>
    <rect style="fill: #ffffff" x="120" y="131" width="101" height="47"/>
    <rect style="fill: none; fill-opacity:0; stroke-width: 2; stroke: #000000" x="120" y="131" width="101" height="47"/>
  </g>
  <text font-size="13.5467" style="fill: #000000;text-anchor:middle;font-family:sans-serif;font-style:normal;font-weight:normal" x="170.5" y="154.5">
    <tspan x="170.5" y="154.5">gunicorn</tspan>
  </text>
  <g>
    <rect style="fill: #ffffff" x="333.8" y="130.4" width="101" height="47"/>
    <rect style="fill: none; fill-opacity:0; stroke-width: 2; stroke: #000000" x="333.8" y="130.4" width="101" height="47"/>
  </g>
  <text font-size="13.5467" style="fill: #000000;text-anchor:middle;font-family:sans-serif;font-style:normal;font-weight:normal" x="384.3" y="153.9">
    <tspan x="384.3" y="153.9">MySQL</tspan>
  </text>
  <g>
    <line style="fill: none; fill-opacity:0; stroke-width: 2; stroke: #000000" x1="221" y1="154.5" x2="324.064" y2="153.952"/>
    <polygon style="fill: #000000" points="331.564,153.912 321.591,158.965 324.064,153.952 321.538,148.965 "/>
    <polygon style="fill: none; fill-opacity:0; stroke-width: 2; stroke: #000000" points="331.564,153.912 321.591,158.965 324.064,153.952 321.538,148.965 "/>
  </g>
  <g>
    <rect style="fill: #ffffff" x="333.606" y="52.9" width="101" height="47"/>
    <rect style="fill: none; fill-opacity:0; stroke-width: 2; stroke: #000000" x="333.606" y="52.9" width="101" height="47"/>
  </g>
  <text font-size="13.5467" style="fill: #000000;text-anchor:middle;font-family:sans-serif;font-style:normal;font-weight:normal" x="384.106" y="76.4">
    <tspan x="384.106" y="76.4">MySQL</tspan>
  </text>
  <g>
    <line style="fill: none; fill-opacity:0; stroke-width: 2; stroke: #000000" x1="221" y1="154.5" x2="325.606" y2="81.9487"/>
    <polygon style="fill: #000000" points="331.769,77.6744 326.401,87.482 325.606,81.9487 320.702,79.2649 "/>
    <polygon style="fill: none; fill-opacity:0; stroke-width: 2; stroke: #000000" points="331.769,77.6744 326.401,87.482 325.606,81.9487 320.702,79.2649 "/>
  </g>
  <g>
    <rect style="fill: #ffffff" x="334.406" y="208.8" width="101" height="47"/>
    <rect style="fill: none; fill-opacity:0; stroke-width: 2; stroke: #000000" x="334.406" y="208.8" width="101" height="47"/>
  </g>
  <text font-size="13.5467" style="fill: #000000;text-anchor:middle;font-family:sans-serif;font-style:normal;font-weight:normal" x="384.906" y="232.3">
    <tspan x="384.906" y="232.3">MySQL</tspan>
  </text>
  <g>
    <line style="fill: none; fill-opacity:0; stroke-width: 2; stroke: #000000" x1="221" y1="154.5" x2="326.378" y2="226.792"/>
    <polygon style="fill: #000000" points="332.562,231.035 321.488,229.501 326.378,226.792 327.145,221.255 "/>
    <polygon style="fill: none; fill-opacity:0; stroke-width: 2; stroke: #000000" points="332.562,231.035 321.488,229.501 326.378,226.792 327.145,221.255 "/>
  </g>
  <line style="fill: none; fill-opacity:0; stroke-width: 4; stroke: #ff0000" x1="270" y1="167" x2="298" y2="142"/>
  <line style="fill: none; fill-opacity:0; stroke-width: 4; stroke: #ff0000" x1="271.624" y1="142.724" x2="293" y2="166"/>
  <g>
    <rect style="fill: #ffffff" x="128" y="165" width="84" height="64"/>
    <rect style="fill: none; fill-opacity:0; stroke-width: 2; stroke: #000000" x="128" y="165" width="84" height="64"/>
  </g>
  <text font-size="12.8" style="fill: #000000;text-anchor:start;font-family:sans-serif;font-style:normal;font-weight:normal" x="140" y="187">
    <tspan x="140" y="187">W</tspan>
  </text>
  <text font-size="12.8" style="fill: #000000;text-anchor:start;font-family:sans-serif;font-style:normal;font-weight:normal" x="143.8" y="212.8">
    <tspan x="143.8" y="212.8">W</tspan>
  </text>
  <text font-size="12.8" style="fill: #000000;text-anchor:start;font-family:sans-serif;font-style:normal;font-weight:normal" x="163.6" y="183.7">
    <tspan x="163.6" y="183.7">W</tspan>
  </text>
  <text font-size="12.8" style="fill: #000000;text-anchor:start;font-family:sans-serif;font-style:normal;font-weight:normal" x="187.4" y="193.6">
    <tspan x="187.4" y="193.6">W</tspan>
  </text>
  <text font-size="12.8" style="fill: #000000;text-anchor:start;font-family:sans-serif;font-style:normal;font-weight:normal" x="170.2" y="209.5">
    <tspan x="170.2" y="209.5">W</tspan>
  </text>
  <line style="fill: none; fill-opacity:0; stroke-width: 4; stroke: #ff0000" x1="156.605" y1="187.431" x2="176.981" y2="171.707"/>
  <line style="fill: none; fill-opacity:0; stroke-width: 4; stroke: #ff0000" x1="161.981" y1="169.707" x2="176.605" y2="188.431"/>
  <line style="fill: none; fill-opacity:0; stroke-width: 4; stroke: #ff0000" x1="180.624" y1="192.724" x2="201" y2="177"/>
  <line style="fill: none; fill-opacity:0; stroke-width: 4; stroke: #ff0000" x1="186" y1="175" x2="200.624" y2="193.724"/>
  <line style="fill: none; fill-opacity:0; stroke-width: 4; stroke: #ff0000" x1="136.605" y1="216.432" x2="156.981" y2="200.708"/>
  <line style="fill: none; fill-opacity:0; stroke-width: 4; stroke: #ff0000" x1="141.981" y1="198.707" x2="156.605" y2="217.432"/>
  <line style="fill: none; fill-opacity:0; stroke-width: 4; stroke: #ff0000" x1="163.405" y1="215.332" x2="183.781" y2="199.607"/>
  <line style="fill: none; fill-opacity:0; stroke-width: 4; stroke: #ff0000" x1="170" y1="197" x2="183.405" y2="216.332"/>
  <line style="fill: none; fill-opacity:0; stroke-width: 4; stroke: #ff0000" x1="132.205" y1="188.231" x2="152.581" y2="172.507"/>
  <line style="fill: none; fill-opacity:0; stroke-width: 4; stroke: #ff0000" x1="137.581" y1="170.507" x2="152.205" y2="189.231"/>
  <line style="fill: none; fill-opacity:0; stroke-width: 4; stroke: #ff0000" x1="148" y1="160" x2="193" y2="136"/>
  <line style="fill: none; fill-opacity:0; stroke-width: 4; stroke: #ff0000" x1="145" y1="137" x2="193" y2="157"/>
</svg>
